<?xml version="1.0" encoding="utf-8"?>
<!-- Generator: Adobe Illustrator 12.0.1, SVG Export Plug-In  -->
<!DOCTYPE svg PUBLIC "-//W3C//DTD SVG 1.1//EN" "http://www.w3.org/Graphics/SVG/1.1/DTD/svg11.dtd" [
	<!ENTITY ns_flows "http://ns.adobe.com/Flows/1.0/">
	<!ENTITY ns_svg "http://www.w3.org/2000/svg">
	<!ENTITY ns_xlink "http://www.w3.org/1999/xlink">
]>
<svg  version="1.1" xmlns="&ns_svg;" xmlns:xlink="&ns_xlink;" xmlns:a="http://ns.adobe.com/AdobeSVGViewerExtensions/3.0/"
	 width="2.733in" height="1in" viewBox="-0.936 -0.927 328 101" enable-background="new -0.936 -0.927 328 101" xml:space="preserve">
<defs>
</defs>
<path fill="#EBB902" d="M325.715,73.552c-0.36,0-0.892,0.189-1.27,0.478c-6.255-2.188-24.714-8.793-30.654-12.646
	c-0.756-0.504-21.177,6.67-31.68,8.082c0.045,1.287,0.009,5.338,0.009,5.347c-0.009,0.009,0.045,4.059,0,5.346
	c10.503,1.396,30.934,8.532,31.698,8.037c5.922-3.87,24.372-10.503,30.627-12.699c0.387,0.288,0.909,0.478,1.27,0.478
	c0.63,0,1.134-0.54,1.134-1.206C326.849,74.092,326.345,73.552,325.715,73.552"/>
<linearGradient id="XMLID_1_" gradientUnits="userSpaceOnUse" x1="-238.936" y1="345.0156" x2="-237.936" y2="345.0156" gradientTransform="matrix(-0.0188 -26.8638 -25.0585 0.0188 8937.0176 -6336.9976)">
	<stop  offset="0" style="stop-color:#F5D908"/>
	<stop  offset="0.0451" style="stop-color:#F0CC06"/>
	<stop  offset="0.129" style="stop-color:#E4A902"/>
	<stop  offset="0.1685" style="stop-color:#DE9600"/>
	<stop  offset="0.2152" style="stop-color:#E6AD02"/>
	<stop  offset="0.2637" style="stop-color:#EDC003"/>
	<stop  offset="0.3956" style="stop-color:#EEC304"/>
	<stop  offset="0.5421" style="stop-color:#EBBA02"/>
	<stop  offset="0.6264" style="stop-color:#EBB902"/>
	<stop  offset="0.7179" style="stop-color:#F3D507"/>
	<stop  offset="0.7912" style="stop-color:#F5D908"/>
	<stop  offset="0.8506" style="stop-color:#EFC806"/>
	<stop  offset="0.9677" style="stop-color:#E09C01"/>
	<stop  offset="1" style="stop-color:#DC8F00"/>
</linearGradient>
<path fill="url(#XMLID_1_)" d="M293.649,61.359c-1.809-0.001-18.108,5.607-28.661,7.63l0.008,11.642
	c10.559,2.005,26.877,7.589,28.682,7.589c0.068,0,0.116-0.008,0.142-0.024c5.922-3.87,24.372-10.503,30.627-12.699
	c0.387,0.288,0.909,0.478,1.27,0.478c0.63,0,1.134-0.54,1.134-1.206c0-0.676-0.504-1.216-1.134-1.216
	c-0.36,0-0.892,0.189-1.27,0.478c-6.255-2.188-24.714-8.793-30.654-12.646C293.766,61.367,293.718,61.359,293.649,61.359"/>
<ellipse fill="#FFFFFF" cx="289.32" cy="74.791" rx="2.448" ry="2.625"/>
<rect x="290.585" y="74.656" fill="#FFFFFF" width="36.262" height="0.237"/>
<path fill="#047391" d="M259.097,63.022l0.009,23.58l-75.474,12.141c0,0-65.592-1.476-78.895-5.418
	c-13.311-3.96-11.169-32.715-0.027-36.504c11.142-3.78,78.885-5.823,78.885-5.823L259.097,63.022"/>
<path fill="#047391" d="M183.569,49.99c-2.771,0.09-68.031,2.097-79.182,5.886c-6.688,2.277-10.008,12.195-9.846,20.826
	c0.18,9.081,3.978,15.813,9.909,17.577c13.284,3.942,76.482,5.4,79.164,5.463h0.09l76.401-12.285l-0.009-25.29L183.659,49.99
	H183.569 M105.017,92.362c-6.057-1.8-8.352-9.288-8.478-15.696c0-0.188,0-0.378,0-0.566c0-7.587,2.916-16.435,8.487-18.324
	c10.755-3.654,76.338-5.715,78.507-5.778c0.189,0.027,72.918,11.61,74.565,11.871c0,1.53,0.009,20.358,0.009,21.888
	c-1.646,0.262-74.358,11.961-74.538,11.988C181.472,97.69,117.896,96.179,105.017,92.362"/>
<linearGradient id="XMLID_2_" gradientUnits="userSpaceOnUse" x1="-238.936" y1="345.0713" x2="-237.936" y2="345.0713" gradientTransform="matrix(4.6188 32.34 32.34 -4.6188 -9882.2109 9367.4375)">
	<stop  offset="0" style="stop-color:#0FABC0"/>
	<stop  offset="0.4377" style="stop-color:#097E98"/>
	<stop  offset="1" style="stop-color:#003F5F"/>
</linearGradient>
<path fill="url(#XMLID_2_)" d="M183.533,51.997c-2.169,0.063-67.752,2.124-78.507,5.778c-5.571,1.89-8.487,10.737-8.487,18.324
	c0,0.188,0,0.378,0,0.566c0.126,6.408,2.421,13.896,8.478,15.696c12.879,3.816,76.455,5.328,78.552,5.382
	c0.18-0.027,72.892-11.727,74.538-11.988c0-1.529-0.009-20.357-0.009-21.888C256.451,63.607,183.722,52.024,183.533,51.997"/>
<linearGradient id="XMLID_3_" gradientUnits="userSpaceOnUse" x1="-238.936" y1="345.0732" x2="-237.936" y2="345.0732" gradientTransform="matrix(4.6188 32.34 32.34 -4.6188 -9882.2109 9367.4375)">
	<stop  offset="0" style="stop-color:#0FABC0"/>
	<stop  offset="0.4377" style="stop-color:#097E98"/>
	<stop  offset="1" style="stop-color:#003F5F"/>
</linearGradient>
<path fill="url(#XMLID_3_)" d="M183.569,97.744c-2.097-0.054-65.673-1.565-78.552-5.382c-6.057-1.8-8.352-9.288-8.478-15.696
	c0-0.188,0-0.378,0-0.566c0-7.587,2.916-16.435,8.487-18.324c10.755-3.654,76.338-5.715,78.507-5.778
	c0.189,0.027,72.918,11.61,74.565,11.871c0,1.53,0.009,20.358,0.009,21.888C256.46,86.018,183.749,97.717,183.569,97.744
	 M183.605,51.241c-0.675,0.027-67.842,2.088-78.813,5.823c-6.12,2.079-9.162,11.438-9,19.61c0.126,6.679,2.565,14.49,9.018,16.407
	c13.122,3.889,78.174,5.4,78.786,5.418c0,0,74.844-12.042,75.258-12.104c0-0.414-0.009-22.752-0.009-23.166
	C258.422,63.166,183.605,51.241,183.605,51.241"/>
<path fill="#006C97" d="M183.596,98.5c-0.612-0.018-65.664-1.529-78.786-5.418c-6.453-1.917-8.892-9.729-9.018-16.407
	c-0.162-8.172,2.88-17.531,9-19.61c10.971-3.735,78.138-5.796,78.813-5.823c0,0,74.817,11.925,75.24,11.988
	c0,0.414,0.009,22.752,0.009,23.166C258.44,86.458,183.596,98.5,183.596,98.5 M183.632,50.746
	c-0.721,0.019-67.959,2.088-79.002,5.841c-6.345,2.16-9.504,11.745-9.333,20.098c0.126,6.857,2.664,14.886,9.369,16.875
	c13.185,3.915,78.309,5.418,78.966,5.436l75.347-12.116l-0.017-24.133L183.632,50.746"/>
<polyline fill="#047391" points="264.479,62.194 264.506,87.421 259.475,87.421 259.457,62.203 264.479,62.194 "/>
<path fill="#047391" d="M258.962,61.699l0.018,26.226L265,87.916l-0.018-26.217H258.962 M263.984,62.698
	c0,0.936,0.018,23.283,0.018,24.219c-0.72,0-3.303,0-4.022,0.009c0-0.944-0.019-23.282-0.019-24.228
	C260.681,62.698,263.264,62.698,263.984,62.698"/>
<!--
<defs>
<solidColor id="XMLID_4_" solid-color="#0FABC0"/>
</defs>
-->
<linearGradient id="XMLID_4_" gradientUnits="userSpaceOnUse" x1="-238.936" y1="345.0732" x2="-237.936" y2="345.0732" gradientTransform="matrix(-8.5916 12.0877 11.2759 9.2112 -5675.6108 -224.3378)">
	<stop  offset="0" style="stop-color:#0FABC0"/>
	<stop  offset="0.4377" style="stop-color:#097E98"/>
	<stop  offset="1" style="stop-color:#003F5F"/>
</linearGradient>
<path fill="url(#XMLID_4_)" d="M263.984,62.698c-0.72,0-3.303,0-4.023,0c0,0.945,0.019,23.283,0.019,24.228
	c0.72-0.009,3.303-0.009,4.022-0.009C264.001,85.981,263.984,63.634,263.984,62.698"/>
<path fill="url(#XMLID_4_)" d="M259.979,86.926c0-0.944-0.019-23.282-0.019-24.228c0.721,0,3.304,0,4.023,0
	c0,0.936,0.018,23.283,0.018,24.219C263.282,86.917,260.699,86.917,259.979,86.926 M264.488,62.194l-5.031,0.009l0.027,25.218h5.022
	L264.488,62.194"/>
<path fill="#006AB3" d="M16.822,0c4.896,0,8.994,1.633,12.292,4.898c3.298,3.266,4.948,7.286,4.948,12.06
	c0,4.729-1.646,8.742-4.937,12.037s-7.304,4.942-12.039,4.942c-4.794,0-8.84-1.641-12.139-4.92C1.649,25.736,0,21.769,0,17.111
	c0-3.104,0.751-5.982,2.254-8.632C3.756,5.829,5.805,3.752,8.4,2.251S13.802,0,16.822,0z M16.965,3.156
	c-2.392,0-4.658,0.623-6.8,1.867c-2.142,1.244-3.814,2.92-5.018,5.029s-1.804,4.458-1.804,7.049c0,3.836,1.331,7.075,3.994,9.718
	c2.663,2.643,5.872,3.963,9.627,3.963c2.508,0,4.83-0.607,6.964-1.822s3.8-2.877,4.996-4.985c1.195-2.108,1.793-4.45,1.793-7.027
	c0-2.562-0.598-4.878-1.793-6.95c-1.196-2.071-2.879-3.729-5.05-4.974C21.704,3.779,19.4,3.156,16.965,3.156z"/>
<path fill="#006AB3" d="M46.817,6.617v2.4c-0.915-0.387-1.699-0.58-2.353-0.58c-0.487,0-0.891,0.097-1.212,0.291
	c-0.321,0.194-0.523,0.417-0.606,0.669c-0.083,0.252-0.125,0.924-0.125,2.016L42.521,14h4.047v2.125h-4.049l-0.014,17h-2.469v-17
	h-2.5V14h2.5v-2.988c0-1.371,0.127-2.35,0.381-2.936s0.687-1.058,1.296-1.415s1.346-0.536,2.21-0.536
	C44.729,6.125,45.693,6.289,46.817,6.617z"/>
<path fill="#006AB3" d="M57.866,6.617v2.4c-0.915-0.387-1.699-0.58-2.353-0.58c-0.487,0-0.891,0.097-1.212,0.291
	c-0.321,0.194-0.523,0.417-0.606,0.669c-0.083,0.252-0.125,0.924-0.125,2.016L53.569,14h4.047v2.125h-4.049l-0.014,17h-2.469v-17
	h-2.5V14h2.5v-2.988c0-1.371,0.127-2.35,0.381-2.936s0.687-1.058,1.296-1.415s1.346-0.536,2.21-0.536
	C55.777,6.125,56.741,6.289,57.866,6.617z"/>
<path fill="#006AB3" d="M61.753,6.125c0.559,0,1.036,0.2,1.431,0.598s0.593,0.879,0.593,1.442c0,0.551-0.198,1.026-0.593,1.425
	s-0.873,0.598-1.431,0.598c-0.547,0-1.018-0.199-1.414-0.598s-0.593-0.874-0.593-1.425c0-0.562,0.198-1.043,0.593-1.442
	S61.206,6.125,61.753,6.125z M60.527,14h2.469v19.125h-2.469V14z"/>
<path fill="#006AB3" d="M86.281,17.943l-1.951,1.213c-1.69-2.229-3.996-3.344-6.917-3.344c-2.335,0-4.274,0.75-5.817,2.249
	s-2.314,3.32-2.314,5.464c0,1.395,0.355,2.706,1.065,3.936c0.71,1.23,1.684,2.185,2.922,2.863c1.238,0.68,2.625,1.02,4.163,1.02
	c2.816,0,5.116-1.114,6.899-3.344l1.951,1.283c-0.915,1.377-2.143,2.445-3.685,3.203c-1.542,0.759-3.297,1.139-5.267,1.139
	c-3.025,0-5.534-0.961-7.527-2.885s-2.99-4.264-2.99-7.02c0-1.853,0.466-3.574,1.398-5.163s2.213-2.829,3.843-3.721
	c1.63-0.891,3.453-1.337,5.47-1.337c1.266,0,2.488,0.193,3.667,0.578c1.178,0.385,2.178,0.886,2.999,1.504
	C85.008,16.2,85.706,16.987,86.281,17.943z"/>
<path fill="#006AB3" d="M106.824,26.75l2.074,1.09c-0.682,1.345-1.47,2.43-2.363,3.256c-0.894,0.825-1.898,1.453-3.016,1.884
	s-2.382,0.646-3.793,0.646c-3.128,0-5.574-1.023-7.338-3.07c-1.764-2.046-2.646-4.359-2.646-6.939c0-2.428,0.746-4.591,2.239-6.491
	c1.892-2.416,4.425-3.624,7.598-3.624c3.268,0,5.877,1.233,7.828,3.698c1.387,1.741,2.092,3.915,2.115,6.521h-17.25
	c0.047,2.23,0.759,4.059,2.137,5.485c1.377,1.427,3.078,2.14,5.103,2.14c0.977,0,1.928-0.17,2.852-0.51
	c0.924-0.341,1.711-0.793,2.357-1.355C105.371,28.915,106.07,28.006,106.824,26.75z M106.805,21.594
	c-0.328-1.309-0.809-2.354-1.438-3.138s-1.461-1.414-2.495-1.894c-1.034-0.479-2.122-0.719-3.263-0.719
	c-1.881,0-3.498,0.602-4.85,1.806c-0.988,0.877-1.734,2.191-2.24,3.944H106.805z"/>
<path fill="#434343" d="M123.569,27.086l2.747-1.648c1.93,3.562,4.16,5.344,6.691,5.344c1.082,0,2.099-0.252,3.049-0.756
	c0.951-0.505,1.676-1.182,2.173-2.029s0.746-1.747,0.746-2.697c0-1.082-0.366-2.143-1.099-3.18c-1.01-1.436-2.854-3.165-5.534-5.186
	c-2.694-2.036-4.37-3.508-5.029-4.417c-1.142-1.522-1.713-3.169-1.713-4.941c0-1.405,0.337-2.686,1.01-3.843
	c0.673-1.156,1.621-2.068,2.843-2.734C130.676,0.333,132.004,0,133.438,0c1.522,0,2.945,0.378,4.271,1.135
	c1.324,0.757,2.726,2.149,4.204,4.178l-2.637,2c-1.214-1.617-2.249-2.682-3.104-3.197s-1.787-0.772-2.797-0.772
	c-1.301,0-2.365,0.396-3.191,1.186s-1.239,1.763-1.239,2.919c0,0.703,0.146,1.383,0.438,2.042c0.293,0.659,0.828,1.375,1.604,2.151
	c0.425,0.41,1.815,1.486,4.173,3.227c2.797,2.065,4.716,3.903,5.756,5.515c1.039,1.611,1.56,3.229,1.56,4.854
	c0,2.344-0.89,4.38-2.668,6.108s-3.942,2.592-6.489,2.592c-1.961,0-3.74-0.525-5.336-1.575S124.916,29.553,123.569,27.086z"/>
<path fill="#434343" d="M147.375,14h2.469v8.926c0,2.179,0.117,3.678,0.352,4.498c0.352,1.172,1.023,2.097,2.014,2.775
	c0.991,0.68,2.173,1.02,3.545,1.02s2.535-0.33,3.492-0.992c0.955-0.662,1.615-1.531,1.979-2.609
	c0.246-0.738,0.369-2.302,0.369-4.691V14h2.5v9.391c0,2.638-0.307,4.625-0.922,5.961c-0.615,1.337-1.539,2.383-2.775,3.139
	c-1.234,0.756-2.783,1.135-4.645,1.135s-3.416-0.379-4.663-1.135s-2.178-1.811-2.792-3.164c-0.615-1.354-0.922-3.392-0.922-6.111V14
	z"/>
<path fill="#434343" d="M169.244,14h2.469v3.516c0.971-1.336,2.086-2.339,3.35-3.01c1.264-0.67,2.672-1.006,4.229-1.006
	c2.713,0,5.035,0.979,6.965,2.938s2.895,4.316,2.895,7.072c0,2.814-0.957,5.205-2.869,7.169s-4.219,2.946-6.92,2.946
	c-1.521,0-2.918-0.316-4.193-0.949s-2.426-1.576-3.455-2.83v10.279h-2.469V14z M179.109,15.875c-2.127,0-3.918,0.744-5.371,2.23
	c-1.455,1.487-2.182,3.336-2.182,5.548c0,1.452,0.324,2.757,0.973,3.915c0.648,1.16,1.576,2.078,2.785,2.758
	c1.209,0.678,2.486,1.018,3.83,1.018c1.32,0,2.562-0.342,3.725-1.027c1.162-0.684,2.088-1.641,2.777-2.871
	c0.689-1.229,1.035-2.516,1.035-3.862c0-1.357-0.342-2.646-1.025-3.863s-1.605-2.163-2.762-2.835S180.476,15.875,179.109,15.875z"/>
<path fill="#434343" d="M193.441,14h2.469v3.516c0.971-1.336,2.086-2.339,3.35-3.01c1.264-0.67,2.672-1.006,4.229-1.006
	c2.713,0,5.035,0.979,6.965,2.938s2.895,4.316,2.895,7.072c0,2.814-0.957,5.205-2.869,7.169s-4.219,2.946-6.92,2.946
	c-1.521,0-2.918-0.316-4.193-0.949s-2.426-1.576-3.455-2.83v10.279h-2.469V14z M203.306,15.875c-2.127,0-3.918,0.744-5.371,2.23
	c-1.455,1.487-2.182,3.336-2.182,5.548c0,1.452,0.324,2.757,0.973,3.915c0.648,1.16,1.576,2.078,2.785,2.758
	c1.209,0.678,2.486,1.018,3.83,1.018c1.32,0,2.562-0.342,3.725-1.027c1.162-0.684,2.088-1.641,2.777-2.871
	c0.689-1.229,1.035-2.516,1.035-3.862c0-1.357-0.342-2.646-1.025-3.863s-1.605-2.163-2.762-2.835S204.673,15.875,203.306,15.875z"/>
<rect x="217.23" y="6.625" fill="#434343" width="2.469" height="26.5"/>
<path fill="#434343" d="M225.302,6.125c0.559,0,1.035,0.2,1.432,0.598c0.395,0.398,0.594,0.879,0.594,1.442
	c0,0.551-0.199,1.026-0.594,1.425c-0.396,0.398-0.873,0.598-1.432,0.598c-0.547,0-1.018-0.199-1.414-0.598
	c-0.395-0.398-0.592-0.874-0.592-1.425c0-0.562,0.197-1.043,0.592-1.442C224.285,6.325,224.755,6.125,225.302,6.125z M224.078,14
	h2.469v19.125h-2.469V14z"/>
<path fill="#434343" d="M247.445,26.75l2.074,1.09c-0.684,1.345-1.471,2.43-2.365,3.256c-0.893,0.825-1.898,1.453-3.016,1.884
	s-2.381,0.646-3.793,0.646c-3.127,0-5.574-1.023-7.338-3.07c-1.764-2.046-2.645-4.359-2.645-6.939c0-2.428,0.746-4.591,2.238-6.491
	c1.893-2.416,4.426-3.624,7.6-3.624c3.266,0,5.875,1.233,7.826,3.698c1.387,1.741,2.094,3.915,2.117,6.521h-17.25
	c0.047,2.23,0.758,4.059,2.137,5.485c1.377,1.427,3.078,2.14,5.104,2.14c0.977,0,1.926-0.17,2.852-0.51
	c0.924-0.341,1.709-0.793,2.357-1.355C245.99,28.915,246.691,28.006,247.445,26.75z M247.425,21.594
	c-0.33-1.309-0.809-2.354-1.438-3.138s-1.461-1.414-2.496-1.894c-1.035-0.479-2.123-0.719-3.262-0.719
	c-1.883,0-3.498,0.602-4.852,1.806c-0.986,0.877-1.734,2.191-2.238,3.944H247.425z"/>
<path fill="#434343" d="M263.929,16.053l-1.582,1.635c-1.309-1.271-2.588-1.906-3.838-1.906c-0.795,0-1.477,0.265-2.043,0.793
	s-0.85,1.145-0.85,1.849c0,0.623,0.234,1.215,0.703,1.779c0.469,0.575,1.451,1.251,2.951,2.026c1.826,0.951,3.068,1.867,3.723,2.748
	c0.645,0.893,0.967,1.896,0.967,3.012c0,1.574-0.551,2.906-1.654,3.998c-1.102,1.093-2.48,1.639-4.135,1.639
	c-1.104,0-2.156-0.24-3.158-0.722c-1.004-0.481-1.834-1.144-2.49-1.989l1.547-1.758c1.256,1.417,2.586,2.125,3.994,2.125
	c0.984,0,1.822-0.316,2.516-0.951c0.691-0.635,1.037-1.381,1.037-2.238c0-0.705-0.229-1.334-0.686-1.886
	c-0.455-0.54-1.486-1.222-3.09-2.044c-1.721-0.891-2.893-1.769-3.512-2.635c-0.621-0.867-0.932-1.856-0.932-2.969
	c0-1.452,0.494-2.658,1.482-3.618c0.99-0.96,2.238-1.44,3.748-1.44C260.384,13.5,262.15,14.351,263.929,16.053z"/>
</svg>
